<svg width="162" height="162" viewBox="0 0 162 162" fill="none" xmlns="http://www.w3.org/2000/svg">
<g clip-path="url(#clip0_9_1288)">
<path fill-rule="evenodd" clip-rule="evenodd" d="M58 28.3731C58 28.022 58.0924 27.6771 58.2679 27.3731L73.4944 1C73.8517 0.381198 74.512 0 75.2265 0H86.7735C87.488 0 88.1483 0.381198 88.5056 1L103.732 27.3731C103.908 27.6771 104 28.022 104 28.3731V44C104 45.1046 103.105 46 102 46H60C58.8954 46 58 45.1046 58 44V28.3731Z" fill="#039855"/>
<path fill-rule="evenodd" clip-rule="evenodd" d="M58 133.627C58 133.978 58.0924 134.323 58.2679 134.627L73.4944 161C73.8517 161.619 74.512 162 75.2265 162H86.7735C87.488 162 88.1483 161.619 88.5056 161L103.732 134.627C103.908 134.323 104 133.978 104 133.627V118C104 116.895 103.105 116 102 116H60C58.8954 116 58 116.895 58 118V133.627Z" fill="#039855"/>
<path fill-rule="evenodd" clip-rule="evenodd" d="M133.627 104C133.978 104 134.323 103.908 134.627 103.732L161 88.5056C161.619 88.1483 162 87.488 162 86.7735V75.2265C162 74.512 161.619 73.8517 161 73.4944L134.627 58.2679C134.323 58.0924 133.978 58 133.627 58H118C116.895 58 116 58.8954 116 60V102C116 103.105 116.895 104 118 104H133.627Z" fill="#039855"/>
<path fill-rule="evenodd" clip-rule="evenodd" d="M28.3731 104C28.022 104 27.6771 103.908 27.3731 103.732L1 88.5056C0.381198 88.1483 0 87.488 0 86.7735L0 75.2265C0 74.512 0.381198 73.8517 1 73.4944L27.3731 58.2679C27.6771 58.0924 28.022 58 28.3731 58H44C45.1046 58 46 58.8954 46 60V102C46 103.105 45.1046 104 44 104H28.3731Z" fill="#039855"/>
<rect x="58" y="58" width="45" height="46" rx="2" fill="#F2F4F7"/>
</g>
<defs>
<clipPath id="clip0_9_1288">
<rect width="162" height="162" fill="white"/>
</clipPath>
</defs>
</svg>
